<svg xmlns="http://www.w3.org/2000/svg" width="93.333" height="53.333" preserveAspectRatio="xMidYMid meet" version="1.0" viewBox="0 0 70 40"><metadata>Created by potrace 1.16, written by Peter Selinger 2001-2019</metadata><g fill="#000" stroke="none"><path d="M0 905 l0 -905 2385 0 2385 0 0 905 0 905 -2385 0 -2385 0 0 -905z m1205 32 c120 -208 215 -380 213 -383 -3 -2 -206 -3 -451 -2 l-446 3 202 350 c263 455 247 429 256 419 5 -5 106 -179 226 -387z m455 158 c58 -101 107 -184 110 -184 3 0 52 82 109 182 l104 183 64 2 c37 1 63 -2 61 -7 -7 -21 -333 -580 -338 -580 -4 0 -120 198 -308 530 l-34 59 64 0 63 0 105 -185z m2340 -100 l0 -285 -55 0 -55 0 0 285 0 285 55 0 55 0 0 -285z m-1625 117 c22 -11 48 -28 57 -39 30 -33 58 -107 58 -155 l0 -48 -171 0 c-184 0 -194 -4 -129 -47 42 -29 112 -31 155 -4 31 18 31 18 78 -9 l47 -27 -23 -21 c-68 -64 -200 -81 -293 -38 -122 57 -166 200 -96 318 20 35 80 78 124 89 52 13 149 4 193 -19z m847 2 c39 -19 66 -42 79 -66 7 -13 0 -21 -38 -42 -44 -25 -46 -26 -59 -7 -37 52 -140 53 -186 1 -23 -25 -28 -40 -28 -81 0 -45 4 -55 34 -85 30 -30 40 -34 84 -34 40 0 57 6 82 26 l31 26 44 -23 c25 -13 45 -27 45 -30 0 -17 -83 -79 -117 -88 -110 -31 -230 4 -281 81 -34 52 -42 148 -18 213 20 50 82 112 123 121 16 3 33 8 38 10 22 8 136 -6 167 -22z m476 2 c53 -27 99 -89 112 -150 20 -99 25 -96 -173 -96 l-172 -1 37 -34 c33 -31 44 -35 89 -35 30 0 63 7 80 17 27 16 30 16 80 -7 l51 -24 -33 -28 c-104 -87 -307 -71 -377 30 -86 123 -35 286 107 339 44 17 157 11 199 -11z m-1018 -28 c0 -41 0 -42 16 -20 19 27 58 48 107 57 l37 7 0 -61 0 -61 -46 0 c-39 0 -51 -5 -80 -34 l-34 -34 0 -116 0 -116 -60 0 -60 0 0 210 0 210 60 0 60 0 0 -42z" transform="translate(0.000000,40.000000) scale(0.014675,-0.022099)"/></g></svg>