<svg xmlns="http://www.w3.org/2000/svg"  viewBox="0 0 64 64" width="48px" height="48px"><radialGradient id="QVTlauMmUnp_1sbiXxBjpa" cx="32" cy="31.5" r="30.775" gradientUnits="userSpaceOnUse"><stop offset="0" stop-color="#f4e9c3"/><stop offset=".219" stop-color="#f8eecd"/><stop offset=".644" stop-color="#fdf4dc"/><stop offset="1" stop-color="#fff6e1"/></radialGradient><path fill="url(#QVTlauMmUnp_1sbiXxBjpa)" d="M61.5,46h-4c-1.381,0-2.5-1.119-2.5-2.5c0-1.381,1.119-2.5,2.5-2.5H60c2.209,0,4-1.791,4-4	c0-2.209-1.791-4-4-4h-3.5c-1.933,0-3.5-1.567-3.5-3.5s1.567-3.5,3.5-3.5h3c2.485,0,4.5-2.015,4.5-4.5S61.985,17,59.5,17h-12	c-1.381,0-2.5-1.119-2.5-2.5c0-1.381,1.119-2.5,2.5-2.5H50c2.761,0,5-2.239,5-5s-2.239-5-5-5H8C5.239,2,3,4.239,3,7s2.239,5,5,5h3.5	c1.933,0,3.5,1.567,3.5,3.5S13.433,19,11.5,19H4c-2.209,0-4,1.791-4,4c0,2.209,1.791,4,4,4l9,0.05c1,0,2,1.24,2,2.45	c0,1.209-1,2.45-2,2.45L4.5,32C2.015,32,0,34.015,0,36.5c0,2.41,1.899,4.36,4.279,4.478L4.286,41H5.5C6.881,41,8,42.119,8,43.5	c0,1.309-1.01,2.371-2.292,2.479L5.714,46H5c-1.657,0-3,1.343-3,3s1.343,3,3,3h10c1.105,0,2,0.895,2,2c0,1.105-0.895,2-2,2H8.5	C7.119,56,6,57.119,6,58.5C6,59.881,7.119,61,9.5,61h48c0.381,0,1.5-1.119,1.5-2.5c0-1.381-1.119-2.5-2.5-2.5h-7	c-1.381,0-2.5-1.119-2.5-2.5c0-1.381,1.119-2.5,2.5-2.5h12c1.381,0,2.5-1.119,2.5-2.5C64,47.119,62.881,46,61.5,46z"/><linearGradient id="QVTlauMmUnp_1sbiXxBjpb" x1="32.011" x2="32.011" y1="35.213" y2="8.716" gradientUnits="userSpaceOnUse"><stop offset="0" stop-color="#dbdee1"/><stop offset=".085" stop-color="#dee1e4"/><stop offset=".606" stop-color="#eff1f2"/><stop offset="1" stop-color="#f5f6f7"/></linearGradient><path fill="url(#QVTlauMmUnp_1sbiXxBjpb)" d="M22,8l-0.503-0.373L21,8l0,0l0,0v1l0.5,0.043c0,0-0.032,0.468,0,0.521	c0.032,0.053-0.362,0.894-0.362,0.894l-0.351,1.404l-1,0.679l0.766-0.062l-0.045,0.618l-2.067,0.971l-0.165,1.323l1.58,5.329	l0.759,1.982l1.511,2.404l1.47,2.105l1.883,1.913l1.689,1.251l2.217,1.251l2.711,0.724l4.563,0.43l3.308-0.341l5.425-1.17	l0.351-0.335c0,0-0.367-0.265-0.447-0.275c-0.08-0.01-2.904,0-2.904,0l-2.202-0.066l-2.41-0.272l-2.217-1.04l-2.957-1.894	l-1.992-2.033l-1.055-1.902l-0.815-1.666l-0.719-3.219l-0.177-4.561l-0.058-0.406l0.932-0.998l-0.432-0.32l-4.269-1.794L23.343,9.64	l-1.231-0.265L22,8z"/><linearGradient id="QVTlauMmUnp_1sbiXxBjpc" x1="32" x2="32" y1="3.766" y2="27.634" gradientUnits="userSpaceOnUse"><stop offset="0" stop-color="#a4a4a4"/><stop offset=".619" stop-color="gray"/><stop offset="1" stop-color="#6f6f6f"/></linearGradient><path fill="url(#QVTlauMmUnp_1sbiXxBjpc)" d="M26.328,30.025c-1.074-0.845-2.22-1.655-3.003-2.796	c-1.648-2.012-2.916-4.34-3.783-6.788c-0.524-1.591-0.704-3.298-1.379-4.828c-0.707-1.111,0.121-2.326,1.338-2.679	c0.542-0.104,1.495-0.615,0.345-0.25c-1.031,0.757-1.131-0.687-0.074-0.778c0.722-0.096,0.987-0.687,0.74-1.218	c-0.775-0.505,1.878-1.06,0.543-1.814C19.664,7.375,23,7.086,22.177,8.79c-0.197,1.31,2.331-0.24,1.744,1.273	c0.596,0.727,2.232,0.165,2.192,1.185c0.868,0.06,1.166,0.79,1.982,0.846c0.845,0.382,2.376,0.682,2.664,1.634	c-0.838,0.664-2.779-1.371-2.872,0.466c0.253,2.714,0.189,5.509,1.182,8.093c0.47,1.565,1.608,2.796,2.636,4.015	c0.984,1.194,2.316,2.034,3.674,2.741c1.191,0.562,2.476,0.935,3.774,1.168c0.527-0.403,1.456-1.9,2.278-1.269	c0.039,0.71-1.631,1.483-0.079,1.405c0.911-0.275,1.543,0.705,2.294-0.179c0.691,0.819,2.874-0.523,2.382,1.151	c-0.665,0.429-1.635,0.17-2.302,0.76c-1.099-0.549-1.973,0.491-3.189,0.359c-1.351,0.242-2.725,0.34-4.094,0.342	c-2.246-0.177-4.541-0.252-6.678-1.034C28.561,31.397,27.386,30.711,26.328,30.025L26.328,30.025z M28.225,30.847	c1.176,0.508,2.325,1.044,3.613,1.206c2.044,0.284,4.155,0.722,6.206,0.323c-0.928-0.419-1.888,0.163-2.813-0.3	c-1.109,0.239-2.3-0.061-3.427-0.208c-1.282-0.571-2.666-0.964-3.867-1.706c-1.501-0.548,0.776,0.703,1.181,0.804	c0.938,0.532-1.032-0.273-1.309-0.494c-0.786-0.441-0.886-0.349-0.078,0.099C27.893,30.666,28.054,30.766,28.225,30.847	L28.225,30.847z M25.988,29.267c1.139,0.422-0.005-0.801-0.527-0.73c-0.231-0.401-0.884-0.655-0.423-0.87	c-0.828,0.287-0.867-1.093-1.256-0.896c-0.876-0.277-0.341-1.256-1.384-1.858c-0.095-0.634-1.036-1.184-1.337-2.14	c-0.133-0.489-1.063-1.895-0.492-0.587c0.487,1.259,1.343,2.338,2.056,3.415c0.553,1.026,1.207,2.098,2.215,2.737	C25.18,28.665,25.508,29.164,25.988,29.267L25.988,29.267z M22.706,25.663 M27.352,29.772 M27.971,29.998 M28.745,30.321 M30.071,31.06 M27.524,29.284 M28.104,29.574 M31.007,31.385c0.467,0.294,2.724,0.645,1.311,0.121	C32.081,31.556,29.695,30.831,31.007,31.385z M26.399,27.797 M27.75,28.584 M28.887,29.281 M25.849,27.198	c0.547,0.42,2.208,0.054,0.838-0.251c-0.623-0.332-2.028-0.56-1.071,0.2L25.849,27.198L25.849,27.198z M29.656,29.522 M28.5,28.602	c1.339,0.379-1.126-0.847-0.33-0.139l0.176,0.08L28.5,28.602L28.5,28.602z M30.819,29.943	C32.087,29.955,29.674,29.768,30.819,29.943L30.819,29.943z M25.362,26.465 M32.964,31.146 M27.525,27.79 M25.482,26.317 M23.061,24.752 M29.416,28.785 M33.371,31.212 M29.066,28.423 M26.119,26.556 M31.104,29.653 M28.511,27.893	c0.972,0.125-1.157-0.661-0.213-0.07L28.511,27.893L28.511,27.893z M31.891,29.971c0.908-0.543,0.609,1.271,1.54,0.153	c0.919-0.671-0.794,0.83,0.339,0.12c0.819-0.548,2.029,0.26,2.794,0.523c0.55-0.027,1.084,0.475,1.648,0.17	c1.085-0.292-2.121-0.433-1.281-0.952c-0.993,0.289-1.726-0.344-2.214-0.98c-1.113-0.257-2.401-0.826-2.956-1.812	c-0.227-0.37,0.327,0.052-0.196-0.553c-0.671-0.597-1.006-1.274-1.456-2c-0.538-0.287-0.601-1.132-0.655-0.028	c0.004-0.696-0.65-1.165-0.809-0.97c-0.003-0.671,0.7-0.335,0.208-0.831c-0.106-0.695-0.454-1.42-0.559-2.205	c-0.163-0.378-0.023-1.189-0.556-0.332c-0.194,0.905-0.064-1.112,0.237-0.447c0.396-0.679-0.142-0.599-0.164-0.505	c0.258-0.573,0.163-1.385-0.067-1.075c0.137-0.607,0.217-2.234-0.206-1.946c0.256-0.635,0.486-2.905-0.627-2.039	c-0.451,0.006-1.232,0.164-1.602,0.347c1.158,0.638-0.116,0.23-0.588,0.129c-0.061,0.591-0.528,0.335-1.111,0.341	c0.932,0.115-0.454,0.953-0.988,0.627c-0.694,0.332,0.599,1.16,0.014,1.416c0.072,0.386-1.063-0.139-0.974,0.752	c-0.674-0.283-0.093,1.057,0.244,0.604c1.146,0.31,0.807,1.017,0.836,1.689c-0.187,0.391-0.922-0.92-0.164-0.859	c-0.598-0.972-0.662-0.351-1.159,0.1c-0.116,0.033,1.268,0.642,0.4,0.944c0.764,0.118,0.786,0.786,0.941,1.209	c0.459,0.478,0.365-0.528,0.914,0.047c-0.348-0.512-1.841-1.442-0.639-1.144c-0.006-0.515-0.217-0.931,0.151-0.921	c0.365-0.661-0.382,1.629,0.44,0.789c0.228-0.099,0.284-0.662,0.693,0.053c0.594,0.585,0.215,1.008-0.624,0.473	c0.15,0.509,1.122,0.691,0.939,1.486c0.194,0.7,0.464,0.442,0.7,0.402c0.185,0.68,0.29,0.18,0.299-0.144	c0.848,0.181,0.649,0.683,0.914,1.033c0.584,0.264-0.836-1.787,0.167-0.617c1.055,0.953,0.396,1.35-0.551,1.198	c0.599-0.048,0.793,0.81,1.542,0.78c0.684,0.325,1.146,1.574-0.032,1.054c-0.409-0.369-1.855-0.823-0.674-0.122	c1.091,0.505,1.958,0.808,3.01,1.442c0.753,0.538,1.078,1.153,1.364,1.275c-0.633,0.302-1.907-0.241-0.961-0.408	c-0.59-0.108-1.254-0.406-0.689,0.329c0.481,0.401,1.703,0.359,1.922,0.404c-0.186,0.409-0.505,0.442,0.008,0.474	C31.083,29.75,31.838,29.797,31.891,29.971L31.891,29.971z M30.722,26.671c-0.348-0.364-0.438-1.045-0.062-0.452	C30.853,26.297,31.278,27.332,30.722,26.671L30.722,26.671z M34.528,29.089 M30.173,25.78 M29.795,25.271 M25.212,22.108 M28.86,24.085 M26.283,22.293 M28.494,23.002c-0.414-0.928,0.293-0.507,0.092,0.152L28.494,23.002L28.494,23.002z M24.68,20.459	c-0.185-0.305-0.492-1.198-0.393-1.471c0.089,0.444,0.945,1.912,0.42,0.608c-0.58-1.093,0.694,0.355,0.825,0.627	c0.061,0.271-0.358-0.074-0.074,0.562C24.94,20.061,25.152,21.185,24.68,20.459z M23.502,19.646 M24.032,19.829 M22.757,18.842	c-0.439-0.436-0.756-0.838,0.021-0.271c0.299,0.012-0.665-0.914,0.072-0.294C23.624,18.419,23.232,19.549,22.757,18.842z M23.426,18.825 M23.839,18.957 M23.019,18.174c-1.276-1.135,1.603,0.594,0.208,0.21L23.019,18.174L23.019,18.174z M26.674,20.298	c-0.552-0.331-0.146-2.33,0.042-0.963c0.537-0.174-0.03,0.706,0.371,0.698C27.024,20.588,26.845,20.787,26.674,20.298z M28.026,21.097 M27.791,20.865 M23.269,17.801c-0.82-1.131,2.382,1.144,0.525,0.287C23.6,18.037,23.367,18.019,23.269,17.801z M25.873,19.181C25.795,18.229,26.046,19.339,25.873,19.181L25.873,19.181z M27.849,20.449 M23.395,17.369	c0.487-0.104,2.019,0.855,0.612,0.274C23.851,17.47,23.518,17.549,23.395,17.369z M27.578,19.454	c0.052-0.974,0.291-0.582,0.002,0.139L27.578,19.454L27.578,19.454L27.578,19.454z M23.758,17.03	c0.198-0.291-0.527-1.316,0.105-0.368c0.273,0.217,0.79,0.363,0.333,0.454C24.914,17.751,24.02,17.289,23.758,17.03z M27.371,19.15 M23.343,16.006 M24.286,16.567 M26.944,18.046 M26.79,17.705 M26.564,17.108C26.502,16.732,26.774,17.581,26.564,17.108	L26.564,17.108z M26.932,16.509c-0.253-0.446,0.32-1.966,0.384-1.024c-0.267,0.735-0.077,1.146,0.109,0.16	C27.77,14.87,27.351,17.176,26.932,16.509L26.932,16.509z M27.311,14.248 M26.679,26.718 M27.982,27.377	c0.725,0.186,0.721-0.113,0.066-0.202c-0.353-0.328-1.465-0.676-0.469-0.041C27.645,27.302,27.853,27.298,27.982,27.377	L27.982,27.377z M25.408,25.667c0.399,0.298,1.505,0.844,0.569,0.113c0.315-0.367-0.604-0.562-0.299-0.807	c-0.776-0.475-0.612-0.432-0.068-0.417c-0.932-0.417,0.135-0.385,0.084-0.599c-0.359-0.071-1.785-0.634-0.946,0.046	c-0.853-0.435-0.203,0.162-0.461,0.099c-0.872-0.238,0.777,0.664-0.138,0.44c0.5,0.396,1.346,1.015,0.211,0.42	C24.21,25.177,25.171,25.504,25.408,25.667L25.408,25.667z M26.771,26.45 M33.751,30.678 M34.468,30.98	c0.382-0.371,0.016,0.59,0.634-0.091c0.007-0.488-0.019-0.776-0.71-0.183C34.201,30.812,34.116,31.261,34.468,30.98L34.468,30.98z M23.08,23.829 M23.847,24.331 M28.204,26.959c0.425,0.378,1.954,0.277,0.517,0.047C28.508,26.691,27.369,26.766,28.204,26.959z M34.195,30.659 M35.557,31.595 M35.559,31.348C36.284,30.579,34.856,31.393,35.559,31.348L35.559,31.348z M21.196,22.252	c-0.618-0.882-0.384-1.278-0.98-1.998c-0.113-0.551-1.022-1.8-0.47-0.476C20.251,20.551,20.402,21.75,21.196,22.252z M35.332,31.103 M36.35,31.502 M22.853,22.854 M36.137,31.23c0.647-0.417-0.149-0.353-0.117,0.038L36.137,31.23L36.137,31.23z M27.359,25.697 M27.901,26.009 M37.175,31.512c0.829-0.598-0.502-0.114-0.174,0.113L37.175,31.512L37.175,31.512z M36.858,31.359 M38.479,32.438 M23.269,22.649c0.608,0.136,2.428,1.496,1.354,0.094c-0.55-0.163-0.22-1.507-0.781-1.269c0.377,0.629,0.31,0.897-0.481,0.5	c-0.994-0.485-0.558,0.24-0.364,0.44C22.732,22.474,23.347,22.644,23.269,22.649L23.269,22.649z M20.501,20.463	c0.109-0.45-1.002-2.475-0.524-1.015C20.149,19.754,20.131,20.334,20.501,20.463z M25.582,23.595 M26.352,23.775 M33.029,27.983	C32.901,27.658,32.525,27.976,33.029,27.983L33.029,27.983z M33.349,28.218 M35.995,29.884 M21.884,20.816 M32.441,27.467 M21.596,20.146 M22.953,20.803 M39.508,30.955c0.601-0.122,1.972,0.306,2.193-0.159c-0.73-0.018-2.526-0.515-2.611,0.119	l0.16,0.025L39.508,30.955L39.508,30.955L39.508,30.955z M23.385,20.912 M19.816,18.436 M20.667,18.65 M21.153,18.889 M24.213,20.852 M20.829,18.35 M19.085,17.218 M19.344,17.022 M20.778,17.878c0.606-0.238-1.104-0.493-0.124-0.045L20.778,17.878z M39.969,29.732 M42.287,30.934 M20.925,17.127 M18.885,15.76c-0.11-0.628-0.095-1.731,0.954-1.358	c-1.399,0.278,0.968,1.739,0.669,0.585c0.588,0.029,1.151-0.348,0.842,0.224c1.159-0.128,1.963-1.133,3.083-0.992	c0.872-0.115,1.826-0.203,2.766-0.554c0.773-0.056,1.517-0.888,1.093-1.381c-1.054-0.089-2.157,0.043-3.322,0.274	c-1.291,0.268-2.463,0.778-3.766,0.997c-1.269,0.171,0.255,0.47-0.108,0.537c-0.662,0.23,0.79,0.385-0.086,0.627	c-0.541-0.103-1.104-0.289-0.873-0.859c-1.216,0.158-2.285,0.662-1.324,1.9L18.885,15.76L18.885,15.76L18.885,15.76z M21.815,14.268	c0.285-1.05,1.527,0.864,0.467,0.14C22.156,14.312,21.947,14.235,21.815,14.268z M21.87,13.758 M22.393,13.767	c0.037-0.483,1.196,0.256,0.191,0.174L22.393,13.767L22.393,13.767z M23.108,13.479 M23.29,13.357	c0.435-0.522,2.461-0.333,0.978-0.051C23.871,13.007,23.566,13.482,23.29,13.357z M25.935,12.949 M26.686,12.945	c0.274-0.719,1.065-0.288,0.127-0.144C26.833,12.877,26.785,13.172,26.686,12.945z M20.629,16.758	C21.449,16.256,19.759,16.322,20.629,16.758L20.629,16.758z M21.235,16.926 M19.449,15.659 M43.655,30.802 M41.196,29.124 M44.332,30.964c0.655,0.002,1.984-0.203,0.559-0.203C44.668,30.796,43.588,30.789,44.332,30.964L44.332,30.964z M21.768,16.632	c0.53-0.036,0.829-0.585-0.103-0.553c-1.444-0.15,1.274,0.494-0.185,0.31C21.284,16.519,21.757,16.667,21.768,16.632z M22.235,16.868 M22.789,15.391 M21.026,12.445c0.946-0.322,2.24-0.683,2.686,0.158c-0.455-0.547-0.183-1.086,0.246-0.286	c0.607,0.809,0.911-0.368,0.516-0.64c0.45,0.559,0.962,0.823,0.301,0.035c0.718-0.863-1.437,0.113-1.927,0.103	C22.613,11.922,20.416,12.377,21.026,12.445z M21.58,11.383c0.539-0.407,1.866,0.242,1.015-0.405	C22.512,10.905,20.731,11.469,21.58,11.383z M23.547,11.464c0.631,0.016-0.272-0.848,0.48-0.457	c-0.124-0.404-0.876-0.479-1.244-0.641C22.575,10.736,23.207,11.469,23.547,11.464z M21.925,9.679 M22.729,9.871	c1.017-0.135-0.259-0.438-0.205-0.011L22.729,9.871L22.729,9.871z M21.228,8.697c-0.716-0.935,1.347,0.157,0.619-0.822	C21.235,7.387,20.646,8.424,21.228,8.697z"/><linearGradient id="QVTlauMmUnp_1sbiXxBjpd" x1="14.021" x2="14.021" y1="24.766" y2="50.112" gradientUnits="userSpaceOnUse"><stop offset="0" stop-color="#a4a4a4"/><stop offset=".619" stop-color="gray"/><stop offset="1" stop-color="#6f6f6f"/></linearGradient><path fill="url(#QVTlauMmUnp_1sbiXxBjpd)" d="M18.74,34.631c-0.118,0.463-0.19,1.241-0.218,2.334 c0,0.214-0.097,0.322-0.29,0.322c-0.194,0-0.328-0.093-0.404-0.28c-0.207-0.505-0.405-0.857-0.591-1.058 c-0.221-0.235-0.515-0.377-0.882-0.425c-0.394-0.062-1.376-0.093-2.946-0.093c-0.36,0-0.595,0.038-0.705,0.114 c-0.069,0.048-0.104,0.152-0.104,0.311v4.698c0,0.159,0.1,0.235,0.301,0.228c0.615-0.007,1.507-0.048,2.676-0.124 c0.228-0.028,0.382-0.102,0.462-0.223c0.08-0.121,0.157-0.434,0.233-0.939c0.048-0.277,0.211-0.384,0.487-0.322 c0.235,0.048,0.335,0.156,0.301,0.322c-0.194,0.94-0.256,2.164-0.187,3.672c0.007,0.18-0.107,0.277-0.342,0.29 c-0.194,0.021-0.315-0.083-0.363-0.311c-0.18-0.864-0.513-1.326-1.001-1.385c-0.487-0.059-1.281-0.088-2.38-0.088 c-0.124,0-0.187,0.045-0.187,0.135v4.667c0,0.346,0.128,0.581,0.384,0.705c0.201,0.104,0.633,0.197,1.296,0.28 c0.339,0.035,0.487,0.183,0.446,0.446c-0.041,0.228-0.346,0.318-0.913,0.27c-1.639-0.131-2.99-0.124-4.055,0.021 c-0.297,0.041-0.446-0.08-0.446-0.363c0-0.18,0.149-0.283,0.446-0.311c0.678-0.076,1.016-0.671,1.016-1.784v-8.878 c0-0.456-0.081-0.807-0.244-1.053c-0.162-0.245-0.465-0.468-0.908-0.669c-0.277-0.124-0.38-0.294-0.311-0.508 c0.035-0.131,0.09-0.204,0.166-0.218c0.069-0.021,0.252-0.007,0.55,0.041c0.436,0.069,1.462,0.104,3.08,0.104 c1.908,0,3.557-0.041,4.947-0.124c0.463-0.028,0.695,0.01,0.695,0.114C18.75,34.576,18.747,34.604,18.74,34.631L18.74,34.631z"/><linearGradient id="QVTlauMmUnp_1sbiXxBjpe" x1="23.018" x2="23.018" y1="24.766" y2="50.112" gradientUnits="userSpaceOnUse"><stop offset="0" stop-color="#a4a4a4"/><stop offset=".619" stop-color="gray"/><stop offset="1" stop-color="#6f6f6f"/></linearGradient><path fill="url(#QVTlauMmUnp_1sbiXxBjpe)" d="M25.481,47.814c0,0.277-0.156,0.398-0.467,0.363 c-0.954-0.09-2.137-0.076-3.547,0.041c-0.283,0.028-0.458,0.021-0.524-0.021c-0.066-0.041-0.099-0.156-0.099-0.342 c0-0.166,0.188-0.306,0.565-0.42c0.377-0.114,0.565-0.455,0.565-1.022v-9.386c0-0.56-0.081-0.971-0.244-1.234 c-0.162-0.263-0.448-0.467-0.856-0.612c-0.214-0.076-0.322-0.183-0.322-0.322c0-0.207,0.156-0.363,0.467-0.467 c0.47-0.152,0.958-0.387,1.462-0.705c0.415-0.249,0.678-0.373,0.788-0.373c0.256,0,0.384,0.176,0.384,0.529 c0-0.028-0.014,0.318-0.041,1.037c-0.021,0.685-0.028,1.359-0.021,2.022l0.041,9.262c0,0.422,0.104,0.728,0.311,0.918 c0.207,0.19,0.564,0.316,1.068,0.379C25.326,47.496,25.481,47.613,25.481,47.814z"/><linearGradient id="QVTlauMmUnp_1sbiXxBjpf" x1="30.921" x2="30.921" y1="24.766" y2="50.112" gradientUnits="userSpaceOnUse"><stop offset="0" stop-color="#a4a4a4"/><stop offset=".619" stop-color="gray"/><stop offset="1" stop-color="#6f6f6f"/></linearGradient><path fill="url(#QVTlauMmUnp_1sbiXxBjpf)" d="M34.94,47.119c0,0.145-0.264,0.365-0.793,0.659 c-0.529,0.294-0.952,0.441-1.271,0.441c-0.27,0-0.508-0.131-0.716-0.394c-0.207-0.263-0.353-0.394-0.436-0.394 c-0.062,0-0.391,0.142-0.985,0.425c-0.595,0.283-1.193,0.425-1.794,0.425c-0.567,0-1.041-0.166-1.421-0.498 c-0.415-0.366-0.622-0.864-0.622-1.494c0-1.196,1.369-2.054,4.107-2.572c0.47-0.09,0.709-0.28,0.716-0.57l0.021-0.664 c0.041-1.134-0.46-1.701-1.504-1.701c-0.297,0-0.579,0.266-0.845,0.799c-0.266,0.532-0.648,0.819-1.146,0.861 c-0.567,0.055-0.85-0.183-0.85-0.716c0-0.332,0.422-0.719,1.265-1.162c0.885-0.463,1.736-0.695,2.551-0.695 c1.404,0,2.099,0.667,2.085,2.002l-0.041,4.273c-0.007,0.449,0.183,0.674,0.57,0.674c0.076,0,0.221-0.017,0.436-0.052 c0.214-0.035,0.339-0.052,0.373-0.052C34.84,46.714,34.94,46.849,34.94,47.119L34.94,47.119z M31.746,44.754 c0.007-0.173-0.033-0.287-0.119-0.342c-0.086-0.055-0.223-0.066-0.41-0.031c-1.666,0.297-2.5,0.84-2.5,1.628 c0,0.795,0.432,1.193,1.296,1.193c0.346,0,0.702-0.066,1.068-0.197c0.429-0.152,0.643-0.335,0.643-0.55L31.746,44.754z"/><linearGradient id="QVTlauMmUnp_1sbiXxBjpg" x1="39.597" x2="39.597" y1="24.766" y2="50.112" gradientUnits="userSpaceOnUse"><stop offset="0" stop-color="#a4a4a4"/><stop offset=".619" stop-color="gray"/><stop offset="1" stop-color="#6f6f6f"/></linearGradient><path fill="url(#QVTlauMmUnp_1sbiXxBjpg)" d="M42.678,45.885c0,0.733-0.282,1.315-0.845,1.748 c-0.564,0.432-1.333,0.648-2.308,0.648c-0.65,0-1.3-0.069-1.95-0.207c-0.56-0.124-0.885-0.239-0.975-0.342 c-0.055-0.097-0.083-0.57-0.083-1.421c0-0.366,0.083-0.557,0.249-0.57c0.166-0.021,0.308,0.069,0.425,0.27 c0.519,0.906,1.355,1.359,2.51,1.359c0.975,0,1.462-0.339,1.462-1.016c0-0.297-0.111-0.546-0.332-0.747 c-0.242-0.228-0.712-0.494-1.411-0.799c-1.01-0.449-1.684-0.844-2.022-1.182c-0.366-0.36-0.55-0.844-0.55-1.452 c0-0.747,0.287-1.328,0.861-1.742c0.532-0.401,1.245-0.602,2.137-0.602c0.56,0,1.072,0.045,1.535,0.135 c0.498,0.09,0.757,0.201,0.778,0.332c0.055,0.387,0.169,0.947,0.342,1.68c0.021,0.09-0.076,0.162-0.29,0.218 c-0.228,0.048-0.38,0.01-0.456-0.114c-0.546-0.892-1.238-1.338-2.074-1.338c-0.947,0-1.421,0.304-1.421,0.913 c0,0.339,0.128,0.608,0.384,0.809c0.228,0.173,0.764,0.443,1.608,0.809c0.885,0.38,1.487,0.723,1.805,1.027 C42.47,44.692,42.678,45.221,42.678,45.885z"/><linearGradient id="QVTlauMmUnp_1sbiXxBjph" x1="49.492" x2="49.492" y1="24.766" y2="50.112" gradientUnits="userSpaceOnUse"><stop offset="0" stop-color="#a4a4a4"/><stop offset=".619" stop-color="gray"/><stop offset="1" stop-color="#6f6f6f"/></linearGradient><path fill="url(#QVTlauMmUnp_1sbiXxBjph)" d="M54.709,47.752c0,0.242-0.162,0.37-0.487,0.384 c-0.484,0.007-1.117,0.041-1.898,0.104c-0.387,0.076-0.664,0.028-0.83-0.145c-1.092-1.175-2.019-2.406-2.78-3.692 c-0.062-0.111-0.142-0.166-0.239-0.166c-0.118,0-0.322,0.104-0.612,0.311c-0.325,0.18-0.487,0.436-0.487,0.768 c0,0.235,0.007,0.574,0.021,1.016c0.014,0.443,0.124,0.733,0.332,0.871c0.145,0.097,0.481,0.173,1.006,0.228 c0.325,0.041,0.487,0.162,0.487,0.363c0,0.159-0.026,0.258-0.078,0.296c-0.052,0.038-0.188,0.047-0.41,0.026 c-0.691-0.062-1.86-0.028-3.506,0.104c-0.415,0.035-0.64-0.017-0.674-0.156c-0.014-0.048-0.021-0.118-0.021-0.207 c0-0.214,0.211-0.377,0.633-0.487c0.38-0.097,0.57-0.543,0.57-1.338v-9.065c0-0.567-0.055-0.961-0.166-1.182 c-0.152-0.283-0.47-0.505-0.954-0.664c-0.228-0.076-0.342-0.183-0.342-0.322c0-0.201,0.162-0.356,0.487-0.467 c0.519-0.173,1.013-0.411,1.483-0.716c0.38-0.249,0.615-0.373,0.705-0.373c0.283,0,0.425,0.18,0.425,0.539 c0-0.048-0.003,0.294-0.01,1.027c-0.007,0.505-0.01,1.182-0.01,2.033l0.021,6.493c0,0.18,0.048,0.27,0.145,0.27 c0.104,0,0.263-0.09,0.477-0.27c0.574-0.449,1.279-1.037,2.116-1.763c0.166-0.173,0.249-0.311,0.249-0.415 c0-0.187-0.28-0.318-0.84-0.394c-0.242-0.028-0.356-0.162-0.342-0.404c0.021-0.242,0.142-0.346,0.363-0.311 c0.498,0.069,1.224,0.107,2.178,0.114c0.664,0.007,1.324,0.01,1.981,0.01c0.214,0.007,0.322,0.135,0.322,0.384 c0,0.235-0.169,0.363-0.508,0.384c-0.532,0.021-1.034,0.142-1.504,0.363c-0.657,0.297-1.359,0.819-2.105,1.566 c-0.055,0.041-0.083,0.093-0.083,0.156c0,0.097,0.118,0.328,0.353,0.695c0.864,1.314,1.68,2.306,2.448,2.977 c0.491,0.422,0.951,0.633,1.379,0.633c0.318,0,0.515,0.022,0.591,0.067C54.671,47.439,54.709,47.558,54.709,47.752L54.709,47.752z"/></svg>